STARTFONT 2.1
COMMENT
COMMENT Converted from OpenType font "CourierPrime-Regular.ttf" by "otf2bdf 3.0".
COMMENT
FONT -FreeType-Courier Prime-Medium-R-Normal--19-140-100-100-P-91-ISO10646-1
SIZE 14 100 100
FONTBOUNDINGBOX 22 22 -7 -5
STARTPROPERTIES 19
FOUNDRY "FreeType"
FAMILY_NAME "Courier Prime"
WEIGHT_NAME "Medium"
SLANT "R"
SETWIDTH_NAME "Normal"
ADD_STYLE_NAME ""
PIXEL_SIZE 19
POINT_SIZE 140
RESOLUTION_X 100
RESOLUTION_Y 100
SPACING "P"
AVERAGE_WIDTH 91
CHARSET_REGISTRY "ISO10646"
CHARSET_ENCODING "1"
FONT_ASCENT 14
FONT_DESCENT 6
COPYRIGHT "Copyright 2015 The Courier Prime Project Authors (https://github.com/quoteunquoteapps/CourierPrime)."
_OTF_FONTFILE "CourierPrime-Regular.ttf"
_OTF_PSNAME "CourierPrime-Regular"
ENDPROPERTIES
CHARS 383
STARTCHAR 000D
ENCODING 13
SWIDTH 565 0
DWIDTH 11 0
BBX 0 0 0 0
BITMAP
ENDCHAR
STARTCHAR 0020
ENCODING 32
SWIDTH 565 0
DWIDTH 11 0
BBX 0 0 0 0
BITMAP
ENDCHAR
STARTCHAR 0021
ENCODING 33
SWIDTH 565 0
DWIDTH 11 0
BBX 2 12 5 0
BITMAP
C0
C0
C0
80
80
80
80
80
00
C0
C0
C0
ENDCHAR
STARTCHAR 0022
ENCODING 34
SWIDTH 565 0
DWIDTH 11 0
BBX 7 5 2 7
BITMAP
E6
66
46
46
44
ENDCHAR
STARTCHAR 0023
ENCODING 35
SWIDTH 565 0
DWIDTH 11 0
BBX 10 11 1 0
BITMAP
0900
1900
1100
FFC0
3200
2200
FF80
2400
6400
4400
4400
ENDCHAR
STARTCHAR 0024
ENCODING 36
SWIDTH 565 0
DWIDTH 11 0
BBX 8 13 2 -1
BITMAP
10
10
7A
D6
92
7C
92
93
D3
FE
10
10
10
ENDCHAR
STARTCHAR 0025
ENCODING 37
SWIDTH 565 0
DWIDTH 11 0
BBX 11 11 0 0
BITMAP
7800
4840
CCC0
7980
0300
0600
09C0
3360
6220
4360
01C0
ENDCHAR
STARTCHAR 0026
ENCODING 38
SWIDTH 565 0
DWIDTH 11 0
BBX 10 11 1 0
BITMAP
3E00
3600
6200
6000
2000
7180
4900
C700
C600
6F00
39C0
ENDCHAR
STARTCHAR 0027
ENCODING 39
SWIDTH 565 0
DWIDTH 11 0
BBX 2 5 5 7
BITMAP
C0
C0
C0
80
80
ENDCHAR
STARTCHAR 0028
ENCODING 40
SWIDTH 565 0
DWIDTH 11 0
BBX 5 16 3 -4
BITMAP
18
30
60
40
C0
80
80
80
80
80
C0
C0
60
20
30
08
ENDCHAR
STARTCHAR 0029
ENCODING 41
SWIDTH 565 0
DWIDTH 11 0
BBX 6 16 3 -4
BITMAP
C0
60
30
10
18
08
0C
0C
0C
0C
08
08
18
30
60
C0
ENDCHAR
STARTCHAR 002A
ENCODING 42
SWIDTH 565 0
DWIDTH 11 0
BBX 8 7 2 4
BITMAP
18
10
D3
FE
18
2C
64
ENDCHAR
STARTCHAR 002B
ENCODING 43
SWIDTH 565 0
DWIDTH 11 0
BBX 8 8 2 1
BITMAP
10
10
10
FF
10
10
10
10
ENDCHAR
STARTCHAR 002C
ENCODING 44
SWIDTH 565 0
DWIDTH 11 0
BBX 4 6 3 -3
BITMAP
70
70
60
60
40
C0
ENDCHAR
STARTCHAR 002D
ENCODING 45
SWIDTH 565 0
DWIDTH 11 0
BBX 8 1 2 5
BITMAP
FF
ENDCHAR
STARTCHAR 002E
ENCODING 46
SWIDTH 565 0
DWIDTH 11 0
BBX 3 3 4 0
BITMAP
E0
E0
E0
ENDCHAR
STARTCHAR 002F
ENCODING 47
SWIDTH 565 0
DWIDTH 11 0
BBX 8 16 2 -4
BITMAP
03
02
06
04
0C
0C
08
18
10
30
20
60
60
40
C0
80
ENDCHAR
STARTCHAR 0030
ENCODING 48
SWIDTH 565 0
DWIDTH 11 0
BBX 8 11 2 0
BITMAP
3C
6E
C6
82
83
83
83
82
C6
6E
3C
ENDCHAR
STARTCHAR 0031
ENCODING 49
SWIDTH 565 0
DWIDTH 11 0
BBX 8 11 2 0
BITMAP
18
38
D8
18
18
18
18
18
18
18
FF
ENDCHAR
STARTCHAR 0032
ENCODING 50
SWIDTH 565 0
DWIDTH 11 0
BBX 7 11 2 0
BITMAP
7C
EE
86
06
06
0C
18
30
62
C2
FE
ENDCHAR
STARTCHAR 0033
ENCODING 51
SWIDTH 565 0
DWIDTH 11 0
BBX 7 11 2 0
BITMAP
7C
CE
82
06
3C
06
02
02
82
EE
7C
ENDCHAR
STARTCHAR 0034
ENCODING 52
SWIDTH 565 0
DWIDTH 11 0
BBX 9 11 1 0
BITMAP
0600
0E00
1E00
1600
2600
6600
FF80
0600
0600
0600
1F80
ENDCHAR
STARTCHAR 0035
ENCODING 53
SWIDTH 565 0
DWIDTH 11 0
BBX 7 11 2 0
BITMAP
7E
40
C0
FC
C6
02
02
02
82
EE
78
ENDCHAR
STARTCHAR 0036
ENCODING 54
SWIDTH 565 0
DWIDTH 11 0
BBX 8 11 2 0
BITMAP
0E
38
60
C0
BC
E6
C3
83
C2
66
3C
ENDCHAR
STARTCHAR 0037
ENCODING 55
SWIDTH 565 0
DWIDTH 11 0
BBX 8 11 2 0
BITMAP
FF
C2
C6
04
04
0C
08
18
10
30
30
ENDCHAR
STARTCHAR 0038
ENCODING 56
SWIDTH 565 0
DWIDTH 11 0
BBX 7 11 2 0
BITMAP
3C
66
C2
46
3C
66
C2
82
C2
6E
3C
ENDCHAR
STARTCHAR 0039
ENCODING 57
SWIDTH 565 0
DWIDTH 11 0
BBX 8 11 2 0
BITMAP
7C
EE
82
82
C7
7E
02
06
0C
38
F0
ENDCHAR
STARTCHAR 003A
ENCODING 58
SWIDTH 565 0
DWIDTH 11 0
BBX 3 9 4 0
BITMAP
E0
E0
E0
00
00
00
E0
E0
E0
ENDCHAR
STARTCHAR 003B
ENCODING 59
SWIDTH 565 0
DWIDTH 11 0
BBX 3 12 4 -3
BITMAP
E0
E0
E0
00
00
00
60
E0
C0
C0
C0
80
ENDCHAR
STARTCHAR 003C
ENCODING 60
SWIDTH 565 0
DWIDTH 11 0
BBX 9 9 1 1
BITMAP
0180
0700
1C00
7000
C000
7000
1C00
0700
0180
ENDCHAR
STARTCHAR 003D
ENCODING 61
SWIDTH 565 0
DWIDTH 11 0
BBX 8 5 2 3
BITMAP
FF
00
00
00
FF
ENDCHAR
STARTCHAR 003E
ENCODING 62
SWIDTH 565 0
DWIDTH 11 0
BBX 8 9 2 1
BITMAP
80
E0
38
0E
03
0E
38
E0
80
ENDCHAR
STARTCHAR 003F
ENCODING 63
SWIDTH 565 0
DWIDTH 11 0
BBX 7 12 2 0
BITMAP
7C
EE
C6
06
06
18
10
10
00
00
30
30
ENDCHAR
STARTCHAR 0040
ENCODING 64
SWIDTH 565 0
DWIDTH 11 0
BBX 11 11 0 -1
BITMAP
0F80
38C0
6740
4B20
5920
5320
D360
5DC0
4000
6000
3F00
ENDCHAR
STARTCHAR 0041
ENCODING 65
SWIDTH 565 0
DWIDTH 11 0
BBX 11 11 0 0
BITMAP
3E00
0A00
0B00
1900
1100
1180
3F80
2080
20C0
6040
F1E0
ENDCHAR
STARTCHAR 0042
ENCODING 66
SWIDTH 565 0
DWIDTH 11 0
BBX 9 11 1 0
BITMAP
FE00
6300
6100
6100
6300
7E00
6180
6080
6080
6380
FF00
ENDCHAR
STARTCHAR 0043
ENCODING 67
SWIDTH 565 0
DWIDTH 11 0
BBX 9 11 1 0
BITMAP
1E80
7380
6180
C080
C000
C000
C000
C000
4080
7380
1F00
ENDCHAR
STARTCHAR 0044
ENCODING 68
SWIDTH 565 0
DWIDTH 11 0
BBX 10 11 1 0
BITMAP
FE00
6700
6180
6080
60C0
60C0
60C0
6080
6180
6700
FE00
ENDCHAR
STARTCHAR 0045
ENCODING 69
SWIDTH 565 0
DWIDTH 11 0
BBX 9 11 1 0
BITMAP
FF80
6080
6080
6400
6400
7C00
6400
6080
6080
6080
FF80
ENDCHAR
STARTCHAR 0046
ENCODING 70
SWIDTH 565 0
DWIDTH 11 0
BBX 9 11 1 0
BITMAP
FF80
2080
2080
2600
2600
3E00
2600
2000
2000
2000
FC00
ENDCHAR
STARTCHAR 0047
ENCODING 71
SWIDTH 565 0
DWIDTH 11 0
BBX 10 11 1 0
BITMAP
1F80
7380
4180
C180
8000
8000
87C0
C080
4080
7380
1F00
ENDCHAR
STARTCHAR 0048
ENCODING 72
SWIDTH 565 0
DWIDTH 11 0
BBX 10 11 1 0
BITMAP
F3C0
4100
4100
4100
4100
7F00
4100
4100
4100
4100
F3C0
ENDCHAR
STARTCHAR 0049
ENCODING 73
SWIDTH 565 0
DWIDTH 11 0
BBX 8 11 2 0
BITMAP
FE
10
10
10
10
10
10
10
10
10
FF
ENDCHAR
STARTCHAR 004A
ENCODING 74
SWIDTH 565 0
DWIDTH 11 0
BBX 10 11 1 0
BITMAP
3FC0
0200
0200
0200
0200
0200
8200
8200
8200
E600
7C00
ENDCHAR
STARTCHAR 004B
ENCODING 75
SWIDTH 565 0
DWIDTH 11 0
BBX 10 11 1 0
BITMAP
F3C0
6100
6200
6400
7800
7E00
7600
6300
6100
6180
F8C0
ENDCHAR
STARTCHAR 004C
ENCODING 76
SWIDTH 565 0
DWIDTH 11 0
BBX 9 11 1 0
BITMAP
FC00
2000
2000
2000
2000
2000
2080
2080
2080
2080
FF80
ENDCHAR
STARTCHAR 004D
ENCODING 77
SWIDTH 565 0
DWIDTH 11 0
BBX 11 11 0 0
BITMAP
70E0
31C0
31C0
39C0
2BC0
6E40
6640
6440
6040
6040
F1E0
ENDCHAR
STARTCHAR 004E
ENCODING 78
SWIDTH 565 0
DWIDTH 11 0
BBX 10 11 1 0
BITMAP
E3C0
7180
7180
5980
4980
4D80
4580
4780
4380
4180
F180
ENDCHAR
STARTCHAR 004F
ENCODING 79
SWIDTH 565 0
DWIDTH 11 0
BBX 10 11 1 0
BITMAP
3E00
7300
C180
C080
80C0
80C0
80C0
C080
C180
7300
3E00
ENDCHAR
STARTCHAR 0050
ENCODING 80
SWIDTH 565 0
DWIDTH 11 0
BBX 9 11 1 0
BITMAP
FF00
2380
2080
2080
2080
2180
3F00
2000
2000
2000
FC00
ENDCHAR
STARTCHAR 0051
ENCODING 81
SWIDTH 565 0
DWIDTH 11 0
BBX 10 13 1 -2
BITMAP
3E00
7300
C180
C080
80C0
80C0
80C0
C080
C180
7300
3E00
3000
7F80
ENDCHAR
STARTCHAR 0052
ENCODING 82
SWIDTH 565 0
DWIDTH 11 0
BBX 10 11 1 0
BITMAP
FE00
6300
6180
6180
6100
7E00
6600
6300
6300
6180
F8C0
ENDCHAR
STARTCHAR 0053
ENCODING 83
SWIDTH 565 0
DWIDTH 11 0
BBX 9 11 1 0
BITMAP
3D00
6700
4100
4000
7000
1F00
0180
C180
C180
F300
DE00
ENDCHAR
STARTCHAR 0054
ENCODING 84
SWIDTH 565 0
DWIDTH 11 0
BBX 9 11 1 0
BITMAP
FF80
C880
C880
C880
8880
0800
0800
0800
0800
0800
7F00
ENDCHAR
STARTCHAR 0055
ENCODING 85
SWIDTH 565 0
DWIDTH 11 0
BBX 10 11 1 0
BITMAP
F3C0
4180
4180
4180
4180
4180
4180
4180
4100
7300
3E00
ENDCHAR
STARTCHAR 0056
ENCODING 86
SWIDTH 565 0
DWIDTH 11 0
BBX 11 11 0 0
BITMAP
F9E0
6040
20C0
3080
1180
1100
1900
0B00
0A00
0E00
0600
ENDCHAR
STARTCHAR 0057
ENCODING 87
SWIDTH 565 0
DWIDTH 11 0
BBX 11 11 0 0
BITMAP
F1E0
4040
4440
6640
6E40
2AC0
2BC0
39C0
3180
3180
3180
ENDCHAR
STARTCHAR 0058
ENCODING 88
SWIDTH 565 0
DWIDTH 11 0
BBX 11 11 0 0
BITMAP
79E0
3080
1180
0B00
0E00
0600
0E00
1900
3180
20C0
FBE0
ENDCHAR
STARTCHAR 0059
ENCODING 89
SWIDTH 565 0
DWIDTH 11 0
BBX 10 11 1 0
BITMAP
F3C0
4180
6300
3200
1600
1C00
0800
0800
0800
0800
7F00
ENDCHAR
STARTCHAR 005A
ENCODING 90
SWIDTH 565 0
DWIDTH 11 0
BBX 8 11 2 0
BITMAP
FF
82
86
8C
08
10
30
63
43
C3
FF
ENDCHAR
STARTCHAR 005B
ENCODING 91
SWIDTH 565 0
DWIDTH 11 0
BBX 5 16 3 -3
BITMAP
F8
80
80
80
80
80
80
80
80
80
80
80
80
80
80
F8
ENDCHAR
STARTCHAR 005C
ENCODING 92
SWIDTH 565 0
DWIDTH 11 0
BBX 8 16 2 -4
BITMAP
80
C0
40
60
60
20
30
10
18
08
0C
0C
04
06
02
03
ENDCHAR
STARTCHAR 005D
ENCODING 93
SWIDTH 565 0
DWIDTH 11 0
BBX 5 16 3 -3
BITMAP
F8
08
08
08
08
08
08
08
08
08
08
08
08
08
08
F8
ENDCHAR
STARTCHAR 005E
ENCODING 94
SWIDTH 565 0
DWIDTH 11 0
BBX 7 7 2 5
BITMAP
10
18
38
2C
64
46
C2
ENDCHAR
STARTCHAR 005F
ENCODING 95
SWIDTH 565 0
DWIDTH 11 0
BBX 12 1 0 -3
BITMAP
FFF0
ENDCHAR
STARTCHAR 0060
ENCODING 96
SWIDTH 565 0
DWIDTH 11 0
BBX 5 4 3 10
BITMAP
80
C0
70
18
ENDCHAR
STARTCHAR 0061
ENCODING 97
SWIDTH 565 0
DWIDTH 11 0
BBX 10 9 1 0
BITMAP
3E00
7300
0100
0100
7F00
E300
C100
E700
7DC0
ENDCHAR
STARTCHAR 0062
ENCODING 98
SWIDTH 565 0
DWIDTH 11 0
BBX 10 12 0 0
BITMAP
E000
2000
2000
2F00
3980
30C0
2040
2040
2040
30C0
3980
6F00
ENDCHAR
STARTCHAR 0063
ENCODING 99
SWIDTH 565 0
DWIDTH 11 0
BBX 9 9 1 0
BITMAP
3F80
7380
4180
C180
C000
C000
4080
7380
3E00
ENDCHAR
STARTCHAR 0064
ENCODING 100
SWIDTH 565 0
DWIDTH 11 0
BBX 10 12 1 0
BITMAP
0780
0180
0180
3D80
7780
4180
C180
C180
C180
4180
7780
3DC0
ENDCHAR
STARTCHAR 0065
ENCODING 101
SWIDTH 565 0
DWIDTH 11 0
BBX 9 9 1 0
BITMAP
1E00
7300
4180
C180
FF80
C000
4000
7380
3F00
ENDCHAR
STARTCHAR 0066
ENCODING 102
SWIDTH 565 0
DWIDTH 11 0
BBX 8 12 2 0
BITMAP
1F
3B
30
30
FE
30
30
30
30
30
30
FE
ENDCHAR
STARTCHAR 0067
ENCODING 103
SWIDTH 565 0
DWIDTH 11 0
BBX 10 13 1 -4
BITMAP
3DC0
7780
4180
C180
C180
C180
4180
7780
3D80
0180
0100
6700
7E00
ENDCHAR
STARTCHAR 0068
ENCODING 104
SWIDTH 565 0
DWIDTH 11 0
BBX 10 12 1 0
BITMAP
E000
6000
6000
6E00
7B00
6100
6100
6100
6100
6100
6100
F3C0
ENDCHAR
STARTCHAR 0069
ENCODING 105
SWIDTH 565 0
DWIDTH 11 0
BBX 8 12 2 0
BITMAP
18
18
00
F8
18
18
18
18
18
18
18
FF
ENDCHAR
STARTCHAR 006A
ENCODING 106
SWIDTH 565 0
DWIDTH 11 0
BBX 6 16 2 -4
BITMAP
04
04
00
FC
04
04
04
04
04
04
04
04
04
04
EC
78
ENDCHAR
STARTCHAR 006B
ENCODING 107
SWIDTH 565 0
DWIDTH 11 0
BBX 10 12 1 0
BITMAP
E000
6000
6000
6780
6300
6600
6C00
7C00
7600
6300
6180
F3C0
ENDCHAR
STARTCHAR 006C
ENCODING 108
SWIDTH 565 0
DWIDTH 11 0
BBX 8 12 2 0
BITMAP
F8
18
18
18
18
18
18
18
18
18
18
FF
ENDCHAR
STARTCHAR 006D
ENCODING 109
SWIDTH 565 0
DWIDTH 11 0
BBX 12 9 0 0
BITMAP
FDC0
7540
6640
6640
6640
6640
6640
6640
F770
ENDCHAR
STARTCHAR 006E
ENCODING 110
SWIDTH 565 0
DWIDTH 11 0
BBX 10 9 1 0
BITMAP
EE00
7B00
6100
6180
6180
6180
6180
6180
F3C0
ENDCHAR
STARTCHAR 006F
ENCODING 111
SWIDTH 565 0
DWIDTH 11 0
BBX 9 9 1 0
BITMAP
1E00
7300
4180
C080
C080
C080
4180
7300
1E00
ENDCHAR
STARTCHAR 0070
ENCODING 112
SWIDTH 565 0
DWIDTH 11 0
BBX 10 13 0 -4
BITMAP
6F00
3980
30C0
2040
2040
2040
30C0
3980
2F00
2000
2000
2000
F800
ENDCHAR
STARTCHAR 0071
ENCODING 113
SWIDTH 565 0
DWIDTH 11 0
BBX 10 13 1 -4
BITMAP
3DC0
7780
4180
C180
C180
C180
4180
7780
3D80
0180
0180
0180
07C0
ENDCHAR
STARTCHAR 0072
ENCODING 114
SWIDTH 565 0
DWIDTH 11 0
BBX 9 9 1 0
BITMAP
7380
3680
3800
3000
3000
3000
3000
3000
FF00
ENDCHAR
STARTCHAR 0073
ENCODING 115
SWIDTH 565 0
DWIDTH 11 0
BBX 8 9 2 0
BITMAP
7A
CE
82
C0
7E
03
83
E6
BC
ENDCHAR
STARTCHAR 0074
ENCODING 116
SWIDTH 565 0
DWIDTH 11 0
BBX 9 11 1 0
BITMAP
1000
1000
1000
FF00
1000
1000
1000
1000
1000
1B80
0F00
ENDCHAR
STARTCHAR 0075
ENCODING 117
SWIDTH 565 0
DWIDTH 11 0
BBX 10 9 1 0
BITMAP
C700
4100
4100
4100
4100
4100
4300
6700
3DC0
ENDCHAR
STARTCHAR 0076
ENCODING 118
SWIDTH 565 0
DWIDTH 11 0
BBX 11 9 0 0
BITMAP
F9E0
20C0
3080
1180
1100
1900
0B00
0E00
0600
ENDCHAR
STARTCHAR 0077
ENCODING 119
SWIDTH 565 0
DWIDTH 11 0
BBX 11 9 0 0
BITMAP
F0E0
4060
4440
6640
6E40
2AC0
2B80
3980
3180
ENDCHAR
STARTCHAR 0078
ENCODING 120
SWIDTH 565 0
DWIDTH 11 0
BBX 10 9 1 0
BITMAP
F3C0
6100
3200
1E00
0C00
1600
2300
6180
F7C0
ENDCHAR
STARTCHAR 0079
ENCODING 121
SWIDTH 565 0
DWIDTH 11 0
BBX 11 13 0 -4
BITMAP
F9E0
20C0
3080
1180
1900
0B00
0E00
0600
0400
0400
0800
3800
7000
ENDCHAR
STARTCHAR 007A
ENCODING 122
SWIDTH 565 0
DWIDTH 11 0
BBX 8 9 2 0
BITMAP
FF
86
8C
08
18
31
63
C3
FF
ENDCHAR
STARTCHAR 007B
ENCODING 123
SWIDTH 565 0
DWIDTH 11 0
BBX 7 16 2 -4
BITMAP
0E
1C
10
10
10
10
30
C0
20
10
10
10
10
10
18
0E
ENDCHAR
STARTCHAR 007C
ENCODING 124
SWIDTH 565 0
DWIDTH 11 0
BBX 1 16 5 -4
BITMAP
80
80
80
80
80
80
80
80
80
80
80
80
80
80
80
80
ENDCHAR
STARTCHAR 007D
ENCODING 125
SWIDTH 565 0
DWIDTH 11 0
BBX 8 16 2 -4
BITMAP
E0
30
18
18
18
18
08
07
0C
18
18
18
18
18
30
F0
ENDCHAR
STARTCHAR 007E
ENCODING 126
SWIDTH 565 0
DWIDTH 11 0
BBX 9 2 1 4
BITMAP
7880
CF00
ENDCHAR
STARTCHAR 00A0
ENCODING 160
SWIDTH 565 0
DWIDTH 11 0
BBX 0 0 0 0
BITMAP
ENDCHAR
STARTCHAR 00A1
ENCODING 161
SWIDTH 565 0
DWIDTH 11 0
BBX 2 13 5 -4
BITMAP
C0
C0
C0
00
00
80
80
80
80
80
C0
C0
C0
ENDCHAR
STARTCHAR 00A2
ENCODING 162
SWIDTH 565 0
DWIDTH 11 0
BBX 9 13 1 -1
BITMAP
0800
0800
1D80
7F80
4980
C980
C800
C800
4880
7F80
1E00
0800
0800
ENDCHAR
STARTCHAR 00A3
ENCODING 163
SWIDTH 565 0
DWIDTH 11 0
BBX 8 11 2 0
BITMAP
3C
66
42
40
60
FC
20
20
60
43
FE
ENDCHAR
STARTCHAR 00A4
ENCODING 164
SWIDTH 565 0
DWIDTH 11 0
BBX 9 10 1 1
BITMAP
8080
5F80
3300
6100
4100
4180
6100
6300
7F80
C080
ENDCHAR
STARTCHAR 00A5
ENCODING 165
SWIDTH 565 0
DWIDTH 11 0
BBX 10 11 1 0
BITMAP
F3C0
4180
2300
F380
1C00
0C00
7F80
0800
0800
0800
7F00
ENDCHAR
STARTCHAR 00A6
ENCODING 166
SWIDTH 565 0
DWIDTH 11 0
BBX 1 16 5 -4
BITMAP
80
80
80
80
80
80
80
00
00
80
80
80
80
80
80
80
ENDCHAR
STARTCHAR 00A7
ENCODING 167
SWIDTH 565 0
DWIDTH 11 0
BBX 8 13 2 -2
BITMAP
3E
62
42
60
F0
9C
C6
73
1B
0E
C6
C6
FC
ENDCHAR
STARTCHAR 00A8
ENCODING 168
SWIDTH 565 0
DWIDTH 11 0
BBX 6 2 3 10
BITMAP
CC
CC
ENDCHAR
STARTCHAR 00A9
ENCODING 169
SWIDTH 565 0
DWIDTH 11 0
BBX 11 11 0 0
BITMAP
1F00
31C0
6F40
5960
D020
9020
D020
5920
4F40
30C0
1F80
ENDCHAR
STARTCHAR 00AA
ENCODING 170
SWIDTH 565 0
DWIDTH 11 0
BBX 8 7 2 4
BITMAP
7C
44
06
7E
C6
CE
7B
ENDCHAR
STARTCHAR 00AB
ENCODING 171
SWIDTH 565 0
DWIDTH 11 0
BBX 9 7 1 2
BITMAP
1180
3100
6200
C600
6200
3100
1180
ENDCHAR
STARTCHAR 00AC
ENCODING 172
SWIDTH 565 0
DWIDTH 11 0
BBX 9 5 1 3
BITMAP
FF80
0080
0080
0080
0080
ENDCHAR
STARTCHAR 00AD
ENCODING 173
SWIDTH 565 0
DWIDTH 11 0
BBX 7 1 2 4
BITMAP
FE
ENDCHAR
STARTCHAR 00AE
ENCODING 174
SWIDTH 565 0
DWIDTH 11 0
BBX 9 10 1 3
BITMAP
1E00
6300
4180
9C80
9280
9C80
9480
5380
6300
3E00
ENDCHAR
STARTCHAR 00AF
ENCODING 175
SWIDTH 565 0
DWIDTH 11 0
BBX 6 1 3 11
BITMAP
FC
ENDCHAR
STARTCHAR 00B0
ENCODING 176
SWIDTH 565 0
DWIDTH 11 0
BBX 5 5 2 6
BITMAP
78
48
C8
C8
78
ENDCHAR
STARTCHAR 00B1
ENCODING 177
SWIDTH 565 0
DWIDTH 11 0
BBX 8 9 2 1
BITMAP
10
10
10
FF
10
10
10
00
FF
ENDCHAR
STARTCHAR 00B2
ENCODING 178
SWIDTH 565 0
DWIDTH 11 0
BBX 6 8 3 4
BITMAP
70
88
88
08
10
60
C4
FC
ENDCHAR
STARTCHAR 00B3
ENCODING 179
SWIDTH 565 0
DWIDTH 11 0
BBX 6 8 3 4
BITMAP
F8
88
08
30
08
0C
88
F8
ENDCHAR
STARTCHAR 00B4
ENCODING 180
SWIDTH 565 0
DWIDTH 11 0
BBX 4 4 4 10
BITMAP
10
30
60
C0
ENDCHAR
STARTCHAR 00B5
ENCODING 181
SWIDTH 565 0
DWIDTH 11 0
BBX 7 13 2 -4
BITMAP
82
82
82
82
82
82
C6
CE
FA
80
80
80
80
ENDCHAR
STARTCHAR 00B6
ENCODING 182
SWIDTH 565 0
DWIDTH 11 0
BBX 9 15 1 -4
BITMAP
3F80
7900
F900
F900
F900
7900
0900
0900
0900
0900
0900
0900
0900
0900
0900
ENDCHAR
STARTCHAR 00B7
ENCODING 183
SWIDTH 565 0
DWIDTH 11 0
BBX 3 3 4 4
BITMAP
E0
E0
E0
ENDCHAR
STARTCHAR 00B8
ENCODING 184
SWIDTH 565 0
DWIDTH 11 0
BBX 5 4 3 -4
BITMAP
20
38
08
F8
ENDCHAR
STARTCHAR 00B9
ENCODING 185
SWIDTH 565 0
DWIDTH 11 0
BBX 6 8 3 4
BITMAP
30
F0
B0
30
30
30
30
FC
ENDCHAR
STARTCHAR 00BA
ENCODING 186
SWIDTH 565 0
DWIDTH 11 0
BBX 7 7 2 4
BITMAP
3C
66
C2
82
C2
66
3C
ENDCHAR
STARTCHAR 00BB
ENCODING 187
SWIDTH 565 0
DWIDTH 11 0
BBX 9 7 1 2
BITMAP
C400
6600
3300
1980
3300
6600
C400
ENDCHAR
STARTCHAR 00BC
ENCODING 188
SWIDTH 565 0
DWIDTH 11 0
BBX 11 15 0 -2
BITMAP
6000
A000
2000
2000
2000
F840
0180
0600
0840
30C0
4140
0240
03E0
0040
0040
ENDCHAR
STARTCHAR 00BD
ENCODING 189
SWIDTH 565 0
DWIDTH 11 0
BBX 11 15 0 -2
BITMAP
6000
A000
2000
2000
2040
F8C0
0300
0400
19C0
6220
4220
0060
00C0
0120
03E0
ENDCHAR
STARTCHAR 00BE
ENCODING 190
SWIDTH 565 0
DWIDTH 11 0
BBX 11 15 0 -2
BITMAP
F000
8800
3000
0800
8840
F8C0
0300
0600
1840
30C0
4140
0240
03E0
0040
0040
ENDCHAR
STARTCHAR 00BF
ENCODING 191
SWIDTH 565 0
DWIDTH 11 0
BBX 7 13 2 -4
BITMAP
18
18
00
00
18
18
18
70
40
C0
42
66
3C
ENDCHAR
STARTCHAR 00C0
ENCODING 192
SWIDTH 565 0
DWIDTH 11 0
BBX 11 17 0 0
BITMAP
1000
1800
0C00
0200
0000
0000
3E00
0A00
0B00
1900
1100
1180
3F80
2080
20C0
6040
F1E0
ENDCHAR
STARTCHAR 00C1
ENCODING 193
SWIDTH 565 0
DWIDTH 11 0
BBX 11 17 0 0
BITMAP
0100
0700
0E00
1800
0000
0000
3E00
0A00
0B00
1900
1100
1180
3F80
2080
20C0
6040
F1E0
ENDCHAR
STARTCHAR 00C2
ENCODING 194
SWIDTH 565 0
DWIDTH 11 0
BBX 11 17 0 0
BITMAP
0400
0E00
1B00
1100
0000
0000
3E00
0A00
0B00
1900
1100
1180
3F80
2080
20C0
6040
F1E0
ENDCHAR
STARTCHAR 00C3
ENCODING 195
SWIDTH 565 0
DWIDTH 11 0
BBX 11 16 0 0
BITMAP
1D80
3700
0000
0000
0000
3E00
0A00
0B00
1900
1100
1180
3F80
2080
20C0
6040
F1E0
ENDCHAR
STARTCHAR 00C4
ENCODING 196
SWIDTH 565 0
DWIDTH 11 0
BBX 11 15 0 0
BITMAP
1100
1100
0000
0000
3E00
0A00
0B00
1900
1100
1180
3F80
2080
20C0
6040
F1E0
ENDCHAR
STARTCHAR 00C5
ENCODING 197
SWIDTH 565 0
DWIDTH 11 0
BBX 11 17 0 0
BITMAP
0E00
1B00
1300
0E00
0000
0000
3E00
0A00
0B00
1900
1100
1180
3F80
2080
20C0
6040
F1E0
ENDCHAR
STARTCHAR 00C6
ENCODING 198
SWIDTH 565 0
DWIDTH 11 0
BBX 11 11 0 0
BITMAP
3FC0
0E40
1E40
1640
1600
3780
3E00
2660
6660
6660
F7E0
ENDCHAR
STARTCHAR 00C7
ENCODING 199
SWIDTH 565 0
DWIDTH 11 0
BBX 9 15 1 -4
BITMAP
1E80
7380
6180
C080
C000
C000
C000
C000
4000
6180
3F00
0800
0E00
0200
1E00
ENDCHAR
STARTCHAR 00C8
ENCODING 200
SWIDTH 565 0
DWIDTH 11 0
BBX 9 17 1 0
BITMAP
1000
3800
1C00
0600
0000
0000
FF80
6080
6080
6400
6400
7C00
6400
6080
6080
6080
FF80
ENDCHAR
STARTCHAR 00C9
ENCODING 201
SWIDTH 565 0
DWIDTH 11 0
BBX 9 17 1 0
BITMAP
0200
0600
1C00
1000
0000
0000
FF80
6080
6080
6400
6400
7C00
6400
6080
6080
6080
FF80
ENDCHAR
STARTCHAR 00CA
ENCODING 202
SWIDTH 565 0
DWIDTH 11 0
BBX 9 17 1 0
BITMAP
0800
0C00
1E00
2100
0000
0000
FF80
6080
6080
6400
6400
7C00
6400
6080
6080
6080
FF80
ENDCHAR
STARTCHAR 00CB
ENCODING 203
SWIDTH 565 0
DWIDTH 11 0
BBX 9 15 1 0
BITMAP
3300
3300
0000
0000
FF80
6080
6080
6400
6400
7C00
6400
6080
6080
6080
FF80
ENDCHAR
STARTCHAR 00CC
ENCODING 204
SWIDTH 565 0
DWIDTH 11 0
BBX 8 17 2 0
BITMAP
40
60
38
0C
00
00
FE
10
10
10
10
10
10
10
10
10
FF
ENDCHAR
STARTCHAR 00CD
ENCODING 205
SWIDTH 565 0
DWIDTH 11 0
BBX 8 17 2 0
BITMAP
04
0C
18
30
00
00
FE
10
10
10
10
10
10
10
10
10
FF
ENDCHAR
STARTCHAR 00CE
ENCODING 206
SWIDTH 565 0
DWIDTH 11 0
BBX 8 17 2 0
BITMAP
10
38
6C
46
00
00
FE
10
10
10
10
10
10
10
10
10
FF
ENDCHAR
STARTCHAR 00CF
ENCODING 207
SWIDTH 565 0
DWIDTH 11 0
BBX 8 15 2 0
BITMAP
66
66
00
00
FE
10
10
10
10
10
10
10
10
10
FF
ENDCHAR
STARTCHAR 00D0
ENCODING 208
SWIDTH 565 0
DWIDTH 11 0
BBX 11 11 0 0
BITMAP
7F00
3380
30C0
3040
3060
FC60
3060
3040
30C0
3380
7F00
ENDCHAR
STARTCHAR 00D1
ENCODING 209
SWIDTH 565 0
DWIDTH 11 0
BBX 10 16 1 0
BITMAP
3900
6E00
0000
0000
0000
E3C0
7180
7180
5980
4980
4D80
4580
4780
4380
4180
F180
ENDCHAR
STARTCHAR 00D2
ENCODING 210
SWIDTH 565 0
DWIDTH 11 0
BBX 10 17 1 0
BITMAP
2000
3800
1C00
0600
0000
0000
3E00
7300
C180
C080
80C0
80C0
80C0
C080
C180
7300
3E00
ENDCHAR
STARTCHAR 00D3
ENCODING 211
SWIDTH 565 0
DWIDTH 11 0
BBX 10 17 1 0
BITMAP
0200
0600
1C00
1000
0000
0000
3E00
7300
C180
C080
80C0
80C0
80C0
C080
C180
7300
3E00
ENDCHAR
STARTCHAR 00D4
ENCODING 212
SWIDTH 565 0
DWIDTH 11 0
BBX 10 17 1 0
BITMAP
0800
1C00
3600
2300
0000
0000
3E00
7300
C180
C080
80C0
80C0
80C0
C080
C180
7300
3E00
ENDCHAR
STARTCHAR 00D5
ENCODING 213
SWIDTH 565 0
DWIDTH 11 0
BBX 10 16 1 0
BITMAP
3900
6E00
0000
0000
0000
3E00
7300
C180
C080
80C0
80C0
80C0
C080
C180
7300
3E00
ENDCHAR
STARTCHAR 00D6
ENCODING 214
SWIDTH 565 0
DWIDTH 11 0
BBX 10 15 1 0
BITMAP
3300
3300
0000
0000
3E00
7300
C180
C080
80C0
80C0
80C0
C080
C180
7300
3E00
ENDCHAR
STARTCHAR 00D7
ENCODING 215
SWIDTH 565 0
DWIDTH 11 0
BBX 7 7 2 2
BITMAP
C2
66
3C
18
3C
66
C2
ENDCHAR
STARTCHAR 00D8
ENCODING 216
SWIDTH 565 0
DWIDTH 11 0
BBX 10 12 1 0
BITMAP
0080
3F80
7700
C380
C680
8480
8CC0
98C0
F080
6180
7300
FE00
ENDCHAR
STARTCHAR 00D9
ENCODING 217
SWIDTH 565 0
DWIDTH 11 0
BBX 10 17 1 0
BITMAP
2000
3000
1C00
0600
0000
0000
F3C0
4180
4180
4180
4180
4180
4180
4180
4100
7300
3E00
ENDCHAR
STARTCHAR 00DA
ENCODING 218
SWIDTH 565 0
DWIDTH 11 0
BBX 10 17 1 0
BITMAP
0200
0600
0C00
1800
0000
0000
F3C0
4180
4180
4180
4180
4180
4180
4180
4100
7300
3E00
ENDCHAR
STARTCHAR 00DB
ENCODING 219
SWIDTH 565 0
DWIDTH 11 0
BBX 10 17 1 0
BITMAP
0800
1C00
3600
2300
0000
0000
F3C0
4180
4180
4180
4180
4180
4180
4180
4100
7300
3E00
ENDCHAR
STARTCHAR 00DC
ENCODING 220
SWIDTH 565 0
DWIDTH 11 0
BBX 10 15 1 0
BITMAP
3300
3300
0000
0000
F3C0
4180
4180
4180
4180
4180
4180
4180
4100
7300
3E00
ENDCHAR
STARTCHAR 00DD
ENCODING 221
SWIDTH 565 0
DWIDTH 11 0
BBX 10 17 1 0
BITMAP
0200
0700
0C00
1800
0000
0000
F3C0
4180
6300
3200
1600
1C00
0800
0800
0800
0800
7F00
ENDCHAR
STARTCHAR 00DE
ENCODING 222
SWIDTH 565 0
DWIDTH 11 0
BBX 9 11 1 0
BITMAP
FC00
2000
3F00
2380
2180
2180
2180
3F00
2000
2000
FC00
ENDCHAR
STARTCHAR 00DF
ENCODING 223
SWIDTH 565 0
DWIDTH 11 0
BBX 10 12 0 0
BITMAP
0F00
1B80
3080
3080
3180
3700
3180
30C0
30C0
30C0
3180
F700
ENDCHAR
STARTCHAR 00E0
ENCODING 224
SWIDTH 565 0
DWIDTH 11 0
BBX 10 14 1 0
BITMAP
1000
3800
0C00
0600
0000
3E00
7300
0100
0100
7F00
E300
C100
E700
7DC0
ENDCHAR
STARTCHAR 00E1
ENCODING 225
SWIDTH 565 0
DWIDTH 11 0
BBX 10 14 1 0
BITMAP
0200
0E00
1C00
3000
0000
3E00
7300
0100
0100
7F00
E300
C100
E700
7DC0
ENDCHAR
STARTCHAR 00E2
ENCODING 226
SWIDTH 565 0
DWIDTH 11 0
BBX 10 14 1 0
BITMAP
0800
1C00
3600
2300
0000
3E00
7300
0100
0100
7F00
E300
C100
E700
7DC0
ENDCHAR
STARTCHAR 00E3
ENCODING 227
SWIDTH 565 0
DWIDTH 11 0
BBX 10 13 1 0
BITMAP
3900
6E00
0000
0000
3E00
7300
0100
0100
7F00
E300
C100
E700
7DC0
ENDCHAR
STARTCHAR 00E4
ENCODING 228
SWIDTH 565 0
DWIDTH 11 0
BBX 10 12 1 0
BITMAP
3300
3300
0000
3E00
7300
0100
0100
7F00
E300
C100
E700
7DC0
ENDCHAR
STARTCHAR 00E5
ENCODING 229
SWIDTH 565 0
DWIDTH 11 0
BBX 10 14 1 0
BITMAP
1C00
1200
3200
1E00
0000
3E00
7300
0100
0100
7F00
E300
C100
E700
7DC0
ENDCHAR
STARTCHAR 00E6
ENCODING 230
SWIDTH 565 0
DWIDTH 11 0
BBX 10 9 1 0
BITMAP
7780
DD80
0CC0
7FC0
C800
8800
8C00
DDC0
7780
ENDCHAR
STARTCHAR 00E7
ENCODING 231
SWIDTH 565 0
DWIDTH 11 0
BBX 9 13 1 -4
BITMAP
1F80
7380
4180
C180
C000
C000
C000
6180
3F00
0800
0E00
0200
3E00
ENDCHAR
STARTCHAR 00E8
ENCODING 232
SWIDTH 565 0
DWIDTH 11 0
BBX 9 14 1 0
BITMAP
1000
3800
0C00
0600
0000
1E00
7300
4180
C180
FF80
C000
4000
7380
3F00
ENDCHAR
STARTCHAR 00E9
ENCODING 233
SWIDTH 565 0
DWIDTH 11 0
BBX 9 14 1 0
BITMAP
0200
0600
1C00
1000
0000
1E00
7300
4180
C180
FF80
C000
4000
7380
3F00
ENDCHAR
STARTCHAR 00EA
ENCODING 234
SWIDTH 565 0
DWIDTH 11 0
BBX 9 14 1 0
BITMAP
0800
0C00
1600
2300
0000
1E00
7300
4180
C180
FF80
C000
4000
7380
3F00
ENDCHAR
STARTCHAR 00EB
ENCODING 235
SWIDTH 565 0
DWIDTH 11 0
BBX 9 12 1 0
BITMAP
3300
3300
0000
1E00
7300
4180
C180
FF80
C000
4000
7380
3F00
ENDCHAR
STARTCHAR 00EC
ENCODING 236
SWIDTH 565 0
DWIDTH 11 0
BBX 8 14 2 0
BITMAP
40
60
30
08
00
F8
18
18
18
18
18
18
18
FF
ENDCHAR
STARTCHAR 00ED
ENCODING 237
SWIDTH 565 0
DWIDTH 11 0
BBX 8 14 2 0
BITMAP
04
1C
38
60
00
F8
18
18
18
18
18
18
18
FF
ENDCHAR
STARTCHAR 00EE
ENCODING 238
SWIDTH 565 0
DWIDTH 11 0
BBX 8 14 2 0
BITMAP
10
38
6C
46
00
F8
18
18
18
18
18
18
18
FF
ENDCHAR
STARTCHAR 00EF
ENCODING 239
SWIDTH 565 0
DWIDTH 11 0
BBX 8 12 2 0
BITMAP
66
66
00
F8
18
18
18
18
18
18
18
FF
ENDCHAR
STARTCHAR 00F0
ENCODING 240
SWIDTH 565 0
DWIDTH 11 0
BBX 9 12 1 0
BITMAP
3B00
1C00
2200
1F00
7380
4180
C080
C080
C080
4180
7300
1E00
ENDCHAR
STARTCHAR 00F1
ENCODING 241
SWIDTH 565 0
DWIDTH 11 0
BBX 10 13 1 0
BITMAP
3900
6E00
0000
0000
EE00
7B00
6100
6180
6180
6180
6180
6180
F3C0
ENDCHAR
STARTCHAR 00F2
ENCODING 242
SWIDTH 565 0
DWIDTH 11 0
BBX 9 14 1 0
BITMAP
2000
3800
1C00
0600
0000
1E00
7300
4180
C080
C080
C080
4180
7300
1E00
ENDCHAR
STARTCHAR 00F3
ENCODING 243
SWIDTH 565 0
DWIDTH 11 0
BBX 9 14 1 0
BITMAP
0200
0600
1C00
1000
0000
1E00
7300
4180
C080
C080
C080
4180
7300
1E00
ENDCHAR
STARTCHAR 00F4
ENCODING 244
SWIDTH 565 0
DWIDTH 11 0
BBX 9 14 1 0
BITMAP
0800
1C00
3600
2300
0000
1E00
7300
4180
C080
C080
C080
4180
7300
1E00
ENDCHAR
STARTCHAR 00F5
ENCODING 245
SWIDTH 565 0
DWIDTH 11 0
BBX 9 13 1 0
BITMAP
3900
6E00
0000
0000
1E00
7300
4180
C080
C080
C080
4180
7300
1E00
ENDCHAR
STARTCHAR 00F6
ENCODING 246
SWIDTH 565 0
DWIDTH 11 0
BBX 9 12 1 0
BITMAP
3300
3300
0000
1E00
7300
4180
C080
C080
C080
4180
7300
1E00
ENDCHAR
STARTCHAR 00F7
ENCODING 247
SWIDTH 565 0
DWIDTH 11 0
BBX 8 9 2 1
BITMAP
18
18
00
00
FF
00
00
18
18
ENDCHAR
STARTCHAR 00F8
ENCODING 248
SWIDTH 565 0
DWIDTH 11 0
BBX 10 9 1 0
BITMAP
1EC0
7780
4380
C680
CC80
D880
7180
7300
9E00
ENDCHAR
STARTCHAR 00F9
ENCODING 249
SWIDTH 565 0
DWIDTH 11 0
BBX 10 14 1 0
BITMAP
2000
3000
1C00
0600
0000
C700
4100
4100
4100
4100
4100
4300
6700
3DC0
ENDCHAR
STARTCHAR 00FA
ENCODING 250
SWIDTH 565 0
DWIDTH 11 0
BBX 10 14 1 0
BITMAP
0200
0600
0C00
1000
0000
C700
4100
4100
4100
4100
4100
4300
6700
3DC0
ENDCHAR
STARTCHAR 00FB
ENCODING 251
SWIDTH 565 0
DWIDTH 11 0
BBX 10 14 1 0
BITMAP
0800
1C00
3600
2300
0000
C700
4100
4100
4100
4100
4100
4300
6700
3DC0
ENDCHAR
STARTCHAR 00FC
ENCODING 252
SWIDTH 565 0
DWIDTH 11 0
BBX 10 12 1 0
BITMAP
2200
2200
0000
C700
4100
4100
4100
4100
4100
4300
6700
3DC0
ENDCHAR
STARTCHAR 00FD
ENCODING 253
SWIDTH 565 0
DWIDTH 11 0
BBX 11 18 0 -4
BITMAP
0100
0300
0600
0C00
0000
F9E0
20C0
3080
1180
1900
0B00
0E00
0600
0400
0400
0800
3800
7000
ENDCHAR
STARTCHAR 00FE
ENCODING 254
SWIDTH 565 0
DWIDTH 11 0
BBX 10 16 0 -4
BITMAP
6000
2000
2000
2F00
3980
30C0
2040
2040
2040
30C0
3980
2F00
2000
2000
2000
F800
ENDCHAR
STARTCHAR 00FF
ENCODING 255
SWIDTH 565 0
DWIDTH 11 0
BBX 11 16 0 -4
BITMAP
1980
1980
0000
F9E0
20C0
3080
1180
1900
0B00
0E00
0600
0400
0400
0800
3800
7000
ENDCHAR
STARTCHAR 0100
ENCODING 256
SWIDTH 565 0
DWIDTH 11 0
BBX 11 15 0 0
BITMAP
3F00
0000
0000
0000
3E00
0A00
0B00
1900
1100
1180
3F80
2080
20C0
6040
F1E0
ENDCHAR
STARTCHAR 0101
ENCODING 257
SWIDTH 565 0
DWIDTH 11 0
BBX 10 12 1 0
BITMAP
3F00
0000
0000
3E00
7300
0100
0100
7F00
E300
C100
E700
7DC0
ENDCHAR
STARTCHAR 0102
ENCODING 258
SWIDTH 565 0
DWIDTH 11 0
BBX 11 16 0 0
BITMAP
3180
1100
1F00
0000
0000
3E00
0A00
0B00
1900
1100
1180
3F80
2080
20C0
6040
F1E0
ENDCHAR
STARTCHAR 0103
ENCODING 259
SWIDTH 565 0
DWIDTH 11 0
BBX 10 13 1 0
BITMAP
2100
2300
3E00
0000
3E00
7300
0100
0100
7F00
E300
C100
E700
7DC0
ENDCHAR
STARTCHAR 0104
ENCODING 260
SWIDTH 565 0
DWIDTH 11 0
BBX 11 15 0 -4
BITMAP
3E00
0E00
0B00
1900
1100
1180
3F80
2080
20C0
6040
F1E0
00C0
0180
0180
01E0
ENDCHAR
STARTCHAR 0105
ENCODING 261
SWIDTH 565 0
DWIDTH 11 0
BBX 10 13 1 -4
BITMAP
3E00
7300
0100
3F00
6300
C100
C300
6F00
3DC0
0100
0300
0200
03C0
ENDCHAR
STARTCHAR 0106
ENCODING 262
SWIDTH 565 0
DWIDTH 11 0
BBX 9 17 1 0
BITMAP
0200
0700
0C00
1800
0000
0000
1E80
7380
6180
C080
C000
C000
C000
C000
4080
7380
1F00
ENDCHAR
STARTCHAR 0107
ENCODING 263
SWIDTH 565 0
DWIDTH 11 0
BBX 9 14 1 0
BITMAP
0200
0600
0C00
1000
0000
3F80
7380
4180
C180
C000
C000
4080
7380
3E00
ENDCHAR
STARTCHAR 0108
ENCODING 264
SWIDTH 565 0
DWIDTH 11 0
BBX 9 17 1 0
BITMAP
0400
0C00
1E00
2100
0000
0000
1E80
7380
6180
C080
C000
C000
C000
C000
4080
7380
1F00
ENDCHAR
STARTCHAR 0109
ENCODING 265
SWIDTH 565 0
DWIDTH 11 0
BBX 9 14 1 0
BITMAP
0800
1C00
3600
2300
0000
3F80
7380
4180
C180
C000
C000
4080
7380
3E00
ENDCHAR
STARTCHAR 010A
ENCODING 266
SWIDTH 565 0
DWIDTH 11 0
BBX 9 15 1 0
BITMAP
0C00
0C00
0000
0000
1E80
7380
6180
C080
C000
C000
C000
C000
4080
7380
1F00
ENDCHAR
STARTCHAR 010B
ENCODING 267
SWIDTH 565 0
DWIDTH 11 0
BBX 9 12 1 0
BITMAP
0C00
0C00
0000
3F80
7380
4180
C180
C000
C000
4080
7380
3E00
ENDCHAR
STARTCHAR 010C
ENCODING 268
SWIDTH 565 0
DWIDTH 11 0
BBX 9 17 1 0
BITMAP
2100
3300
1E00
0C00
0000
0000
1E80
7380
6180
C080
C000
C000
C000
C000
4080
7380
1F00
ENDCHAR
STARTCHAR 010D
ENCODING 269
SWIDTH 565 0
DWIDTH 11 0
BBX 9 14 1 0
BITMAP
2100
3300
1E00
0C00
0000
3F80
7380
4180
C180
C000
C000
4080
7380
3E00
ENDCHAR
STARTCHAR 010E
ENCODING 270
SWIDTH 565 0
DWIDTH 11 0
BBX 10 17 1 0
BITMAP
2200
6600
1C00
0800
0000
0000
FE00
6700
6180
6080
60C0
60C0
60C0
6080
6180
6700
FE00
ENDCHAR
STARTCHAR 010F
ENCODING 271
SWIDTH 565 0
DWIDTH 11 0
BBX 11 12 1 0
BITMAP
0F20
0360
0340
3B40
6F00
C300
C300
C300
C300
C300
6F00
3B80
ENDCHAR
STARTCHAR 0110
ENCODING 272
SWIDTH 565 0
DWIDTH 11 0
BBX 10 11 1 0
BITMAP
FE00
6700
6180
6080
60C0
FCC0
60C0
6080
6180
6700
FE00
ENDCHAR
STARTCHAR 0111
ENCODING 273
SWIDTH 565 0
DWIDTH 11 0
BBX 10 12 1 0
BITMAP
0700
0100
0FC0
3D00
7700
4300
C100
C100
C100
4300
7700
3DC0
ENDCHAR
STARTCHAR 0112
ENCODING 274
SWIDTH 565 0
DWIDTH 11 0
BBX 9 15 1 0
BITMAP
3F00
0000
0000
0000
FF80
6080
6080
6400
6400
7C00
6400
6080
6080
6080
FF80
ENDCHAR
STARTCHAR 0113
ENCODING 275
SWIDTH 565 0
DWIDTH 11 0
BBX 9 12 1 0
BITMAP
3F00
0000
0000
1E00
7300
4180
C180
FF80
C000
4000
7380
3F00
ENDCHAR
STARTCHAR 0114
ENCODING 276
SWIDTH 565 0
DWIDTH 11 0
BBX 9 16 1 0
BITMAP
2100
2300
3E00
0000
0000
FF80
6080
6080
6400
6400
7C00
6400
6080
6080
6080
FF80
ENDCHAR
STARTCHAR 0115
ENCODING 277
SWIDTH 565 0
DWIDTH 11 0
BBX 9 13 1 0
BITMAP
2100
3300
1E00
0000
1E00
7300
4180
C180
FF80
C000
4000
7380
3F00
ENDCHAR
STARTCHAR 0116
ENCODING 278
SWIDTH 565 0
DWIDTH 11 0
BBX 9 15 1 0
BITMAP
0C00
0C00
0000
0000
FF80
6080
6080
6400
6400
7C00
6400
6080
6080
6080
FF80
ENDCHAR
STARTCHAR 0117
ENCODING 279
SWIDTH 565 0
DWIDTH 11 0
BBX 9 12 1 0
BITMAP
0C00
0C00
0000
1E00
7300
4180
C180
FF80
C000
4000
7380
3F00
ENDCHAR
STARTCHAR 0118
ENCODING 280
SWIDTH 565 0
DWIDTH 11 0
BBX 9 15 1 -4
BITMAP
FF80
6080
6080
6400
6400
7C00
6400
6080
6080
6080
FF80
0300
0200
0600
0380
ENDCHAR
STARTCHAR 0119
ENCODING 281
SWIDTH 565 0
DWIDTH 11 0
BBX 9 13 1 -4
BITMAP
1E00
7300
4180
C180
FF80
C000
4000
7380
3F00
0200
0400
0400
0700
ENDCHAR
STARTCHAR 011A
ENCODING 282
SWIDTH 565 0
DWIDTH 11 0
BBX 9 17 1 0
BITMAP
2100
3300
1E00
0C00
0000
0000
FF80
6080
6080
6400
6400
7C00
6400
6080
6080
6080
FF80
ENDCHAR
STARTCHAR 011B
ENCODING 283
SWIDTH 565 0
DWIDTH 11 0
BBX 9 14 1 0
BITMAP
2100
3300
1E00
0C00
0000
1E00
7300
4180
C180
FF80
C000
4000
7380
3F00
ENDCHAR
STARTCHAR 011C
ENCODING 284
SWIDTH 565 0
DWIDTH 11 0
BBX 10 17 1 0
BITMAP
0800
0C00
1E00
2100
0000
0000
1F80
7380
4180
C180
8000
8000
87C0
C080
4080
7380
1F00
ENDCHAR
STARTCHAR 011D
ENCODING 285
SWIDTH 565 0
DWIDTH 11 0
BBX 10 18 1 -4
BITMAP
0800
1C00
3600
2300
0000
3DC0
7780
4180
C180
C180
C180
4180
7780
3D80
0180
0100
6700
7E00
ENDCHAR
STARTCHAR 011E
ENCODING 286
SWIDTH 565 0
DWIDTH 11 0
BBX 10 16 1 0
BITMAP
2100
3300
1E00
0000
0000
1F80
7380
4180
C180
8000
8000
87C0
C080
4080
7380
1F00
ENDCHAR
STARTCHAR 011F
ENCODING 287
SWIDTH 565 0
DWIDTH 11 0
BBX 10 17 1 -4
BITMAP
2100
2300
3E00
0000
3DC0
7780
4180
C180
C180
C180
4180
7780
3D80
0180
0100
6700
7E00
ENDCHAR
STARTCHAR 0120
ENCODING 288
SWIDTH 565 0
DWIDTH 11 0
BBX 10 15 1 0
BITMAP
0C00
0C00
0000
0000
1F80
7380
4180
C180
8000
8000
87C0
C080
4080
7380
1F00
ENDCHAR
STARTCHAR 0121
ENCODING 289
SWIDTH 565 0
DWIDTH 11 0
BBX 10 16 1 -4
BITMAP
0C00
0C00
0000
3DC0
7780
4180
C180
C180
C180
4180
7780
3D80
0180
0100
6700
7E00
ENDCHAR
STARTCHAR 0122
ENCODING 290
SWIDTH 565 0
DWIDTH 11 0
BBX 10 16 1 -5
BITMAP
1F80
7380
4180
C180
8000
8000
87C0
C080
4080
7380
1F00
0000
0C00
0800
0800
1800
ENDCHAR
STARTCHAR 0123
ENCODING 291
SWIDTH 565 0
DWIDTH 11 0
BBX 10 18 1 -4
BITMAP
0400
0400
0C00
0C00
0000
3DC0
7780
4180
C180
C180
C180
4180
7780
3D80
0180
0100
6700
7E00
ENDCHAR
STARTCHAR 0124
ENCODING 292
SWIDTH 565 0
DWIDTH 11 0
BBX 10 17 1 0
BITMAP
0800
1C00
3600
2300
0000
0000
F3C0
4100
4100
4100
4100
7F00
4100
4100
4100
4100
F3C0
ENDCHAR
STARTCHAR 0125
ENCODING 293
SWIDTH 565 0
DWIDTH 11 0
BBX 10 17 1 0
BITMAP
0800
1C00
3600
2300
0000
E000
6000
6000
6E00
7B00
6100
6100
6100
6100
6100
6100
F3C0
ENDCHAR
STARTCHAR 0126
ENCODING 294
SWIDTH 565 0
DWIDTH 11 0
BBX 11 11 0 0
BITMAP
79E0
2080
FFE0
2080
2080
3F80
2080
2080
2080
2080
79E0
ENDCHAR
STARTCHAR 0127
ENCODING 295
SWIDTH 565 0
DWIDTH 11 0
BBX 11 12 0 0
BITMAP
7000
3000
FC00
3700
3D80
3080
3080
3080
3080
3080
3080
79E0
ENDCHAR
STARTCHAR 0128
ENCODING 296
SWIDTH 565 0
DWIDTH 11 0
BBX 8 16 2 0
BITMAP
72
DC
00
00
00
FE
10
10
10
10
10
10
10
10
10
FF
ENDCHAR
STARTCHAR 0129
ENCODING 297
SWIDTH 565 0
DWIDTH 11 0
BBX 8 13 2 0
BITMAP
76
DC
00
00
F8
18
18
18
18
18
18
18
FF
ENDCHAR
STARTCHAR 012A
ENCODING 298
SWIDTH 565 0
DWIDTH 11 0
BBX 8 15 2 0
BITMAP
7E
00
00
00
FE
10
10
10
10
10
10
10
10
10
FF
ENDCHAR
STARTCHAR 012B
ENCODING 299
SWIDTH 565 0
DWIDTH 11 0
BBX 8 12 2 0
BITMAP
7E
00
00
F8
18
18
18
18
18
18
18
FF
ENDCHAR
STARTCHAR 012C
ENCODING 300
SWIDTH 565 0
DWIDTH 11 0
BBX 8 16 2 0
BITMAP
42
46
7C
00
00
FE
10
10
10
10
10
10
10
10
10
FF
ENDCHAR
STARTCHAR 012D
ENCODING 301
SWIDTH 565 0
DWIDTH 11 0
BBX 8 13 2 0
BITMAP
46
44
7C
00
F8
18
18
18
18
18
18
18
FF
ENDCHAR
STARTCHAR 012E
ENCODING 302
SWIDTH 565 0
DWIDTH 11 0
BBX 8 15 2 -4
BITMAP
FE
10
10
10
10
10
10
10
10
10
FF
30
20
60
38
ENDCHAR
STARTCHAR 012F
ENCODING 303
SWIDTH 565 0
DWIDTH 11 0
BBX 8 16 2 -4
BITMAP
18
18
00
F8
18
18
18
18
18
18
18
FF
10
20
20
38
ENDCHAR
STARTCHAR 0130
ENCODING 304
SWIDTH 565 0
DWIDTH 11 0
BBX 8 15 2 0
BITMAP
18
18
00
00
FE
10
10
10
10
10
10
10
10
10
FF
ENDCHAR
STARTCHAR 0131
ENCODING 305
SWIDTH 565 0
DWIDTH 11 0
BBX 8 9 2 0
BITMAP
F8
18
18
18
18
18
18
18
FF
ENDCHAR
STARTCHAR 0132
ENCODING 306
SWIDTH 565 0
DWIDTH 11 0
BBX 11 11 0 0
BITMAP
F1E0
2040
2040
2040
2040
2040
2040
2640
2640
26C0
FB80
ENDCHAR
STARTCHAR 0133
ENCODING 307
SWIDTH 565 0
DWIDTH 11 0
BBX 9 16 1 -4
BITMAP
6180
6180
0000
E780
2080
2080
2080
2080
2080
2080
2080
F880
0080
0180
1980
0F00
ENDCHAR
STARTCHAR 0134
ENCODING 308
SWIDTH 565 0
DWIDTH 11 0
BBX 10 17 1 0
BITMAP
0200
0700
0D80
1880
0000
0000
3FC0
0200
0200
0200
0200
0200
8200
8200
8200
E600
7C00
ENDCHAR
STARTCHAR 0135
ENCODING 309
SWIDTH 565 0
DWIDTH 11 0
BBX 8 18 2 -4
BITMAP
08
1C
36
23
00
FC
04
04
04
04
04
04
04
04
04
04
EC
78
ENDCHAR
STARTCHAR 0136
ENCODING 310
SWIDTH 565 0
DWIDTH 11 0
BBX 10 16 1 -5
BITMAP
F3C0
6100
6200
6400
7800
7E00
7600
6300
6100
6180
F8C0
0000
0C00
0800
0800
1800
ENDCHAR
STARTCHAR 0137
ENCODING 311
SWIDTH 565 0
DWIDTH 11 0
BBX 10 17 1 -5
BITMAP
E000
6000
6000
6780
6300
6600
6C00
7C00
7600
6300
6180
F3C0
0000
0800
0800
1800
1000
ENDCHAR
STARTCHAR 0139
ENCODING 313
SWIDTH 565 0
DWIDTH 11 0
BBX 9 17 1 0
BITMAP
0800
1C00
3000
6000
0000
0000
FC00
2000
2000
2000
2000
2000
2080
2080
2080
2080
FF80
ENDCHAR
STARTCHAR 013A
ENCODING 314
SWIDTH 565 0
DWIDTH 11 0
BBX 8 17 2 0
BITMAP
04
0C
38
20
00
F8
18
18
18
18
18
18
18
18
18
18
FF
ENDCHAR
STARTCHAR 013B
ENCODING 315
SWIDTH 565 0
DWIDTH 11 0
BBX 9 16 1 -5
BITMAP
FC00
2000
2000
2000
2000
2000
2080
2080
2080
2080
FF80
0000
0C00
0800
0800
1800
ENDCHAR
STARTCHAR 013C
ENCODING 316
SWIDTH 565 0
DWIDTH 11 0
BBX 8 17 2 -5
BITMAP
F8
18
18
18
18
18
18
18
18
18
18
FF
00
18
10
10
30
ENDCHAR
STARTCHAR 013D
ENCODING 317
SWIDTH 565 0
DWIDTH 11 0
BBX 10 11 1 0
BITMAP
FCC0
2080
2180
2100
2000
2000
2080
2080
2080
2080
FF80
ENDCHAR
STARTCHAR 013E
ENCODING 318
SWIDTH 565 0
DWIDTH 11 0
BBX 9 12 1 0
BITMAP
7880
0980
0980
0900
0800
0800
0800
0800
0800
0800
0800
FF80
ENDCHAR
STARTCHAR 013F
ENCODING 319
SWIDTH 565 0
DWIDTH 11 0
BBX 9 11 1 0
BITMAP
FC00
2000
2000
2600
2600
2600
2080
2080
2080
2080
FF80
ENDCHAR
STARTCHAR 0140
ENCODING 320
SWIDTH 565 0
DWIDTH 11 0
BBX 9 12 1 0
BITMAP
7800
0800
0800
0800
0800
0980
0980
0800
0800
0800
0800
FF80
ENDCHAR
STARTCHAR 0141
ENCODING 321
SWIDTH 565 0
DWIDTH 11 0
BBX 9 11 1 0
BITMAP
FC00
2000
2000
2400
3800
3000
E080
A080
2080
2080
FF80
ENDCHAR
STARTCHAR 0142
ENCODING 322
SWIDTH 565 0
DWIDTH 11 0
BBX 8 12 2 0
BITMAP
F8
18
18
1A
1C
18
78
D8
18
18
18
FF
ENDCHAR
STARTCHAR 0143
ENCODING 323
SWIDTH 565 0
DWIDTH 11 0
BBX 10 17 1 0
BITMAP
0200
0600
0C00
1000
0000
0000
E3C0
7180
7180
5980
4980
4D80
4580
4780
4380
4180
F180
ENDCHAR
STARTCHAR 0144
ENCODING 324
SWIDTH 565 0
DWIDTH 11 0
BBX 10 14 1 0
BITMAP
0200
0600
0C00
1000
0000
EE00
7B00
6100
6180
6180
6180
6180
6180
F3C0
ENDCHAR
STARTCHAR 0145
ENCODING 325
SWIDTH 565 0
DWIDTH 11 0
BBX 10 16 1 -5
BITMAP
E3C0
7180
7180
5980
4980
4D80
4580
4780
4380
4180
F180
0000
0C00
0800
0800
1800
ENDCHAR
STARTCHAR 0146
ENCODING 326
SWIDTH 565 0
DWIDTH 11 0
BBX 10 14 1 -5
BITMAP
EE00
7B00
6100
6180
6180
6180
6180
6180
F3C0
0000
0C00
0800
0800
1800
ENDCHAR
STARTCHAR 0147
ENCODING 327
SWIDTH 565 0
DWIDTH 11 0
BBX 10 17 1 0
BITMAP
2100
3300
1E00
0C00
0000
0000
E3C0
7180
7180
5980
4980
4D80
4580
4780
4380
4180
F180
ENDCHAR
STARTCHAR 0148
ENCODING 328
SWIDTH 565 0
DWIDTH 11 0
BBX 10 14 1 0
BITMAP
2100
3300
1E00
0C00
0000
EE00
7B00
6100
6180
6180
6180
6180
6180
F3C0
ENDCHAR
STARTCHAR 014A
ENCODING 330
SWIDTH 565 0
DWIDTH 11 0
BBX 10 15 1 -4
BITMAP
E3C0
7180
7180
5980
4980
4D80
4580
4780
4380
4380
F180
0180
0180
0900
0F00
ENDCHAR
STARTCHAR 014B
ENCODING 331
SWIDTH 565 0
DWIDTH 11 0
BBX 9 13 1 -4
BITMAP
EF00
7B00
7180
6180
6180
6180
6180
6180
F180
0180
0180
0980
0F00
ENDCHAR
STARTCHAR 014C
ENCODING 332
SWIDTH 565 0
DWIDTH 11 0
BBX 10 15 1 0
BITMAP
3F00
0000
0000
0000
3E00
7300
C180
C080
80C0
80C0
80C0
C080
C180
7300
3E00
ENDCHAR
STARTCHAR 014D
ENCODING 333
SWIDTH 565 0
DWIDTH 11 0
BBX 9 12 1 0
BITMAP
3F00
0000
0000
1E00
7300
4180
C080
C080
C080
4180
7300
1E00
ENDCHAR
STARTCHAR 014E
ENCODING 334
SWIDTH 565 0
DWIDTH 11 0
BBX 10 16 1 0
BITMAP
2100
2300
3E00
0000
0000
3E00
7300
C180
C080
80C0
80C0
80C0
C080
C180
7300
3E00
ENDCHAR
STARTCHAR 014F
ENCODING 335
SWIDTH 565 0
DWIDTH 11 0
BBX 9 13 1 0
BITMAP
2100
2300
3E00
0000
1E00
7300
4180
C080
C080
C080
4180
7300
1E00
ENDCHAR
STARTCHAR 0150
ENCODING 336
SWIDTH 565 0
DWIDTH 11 0
BBX 10 17 1 0
BITMAP
0880
0D80
1B00
2600
0000
0000
3E00
7300
C180
C080
80C0
80C0
80C0
C080
C180
7300
3E00
ENDCHAR
STARTCHAR 0151
ENCODING 337
SWIDTH 565 0
DWIDTH 11 0
BBX 9 14 1 0
BITMAP
0880
0D80
1B00
2600
0000
1E00
7300
4180
C080
C080
C080
4180
7300
1E00
ENDCHAR
STARTCHAR 0152
ENCODING 338
SWIDTH 565 0
DWIDTH 11 0
BBX 10 11 1 0
BITMAP
3F80
6C80
CC80
8C80
8C00
8F00
8C00
8CC0
CCC0
6CC0
3FC0
ENDCHAR
STARTCHAR 0153
ENCODING 339
SWIDTH 565 0
DWIDTH 11 0
BBX 10 9 1 0
BITMAP
7780
DD80
8CC0
8FC0
8800
8800
8C00
DDC0
7780
ENDCHAR
STARTCHAR 0154
ENCODING 340
SWIDTH 565 0
DWIDTH 11 0
BBX 10 17 1 0
BITMAP
0200
0600
1C00
1000
0000
0000
FE00
6300
6180
6180
6100
7E00
6600
6300
6300
6180
F8C0
ENDCHAR
STARTCHAR 0155
ENCODING 341
SWIDTH 565 0
DWIDTH 11 0
BBX 9 14 1 0
BITMAP
0100
0300
0E00
1800
0000
7380
3680
3800
3000
3000
3000
3000
3000
FF00
ENDCHAR
STARTCHAR 0156
ENCODING 342
SWIDTH 565 0
DWIDTH 11 0
BBX 10 16 1 -5
BITMAP
FE00
6300
6180
6180
6100
7E00
6600
6300
6300
6180
F8C0
0000
0C00
0C00
0800
0800
ENDCHAR
STARTCHAR 0157
ENCODING 343
SWIDTH 565 0
DWIDTH 11 0
BBX 9 14 1 -5
BITMAP
7380
3680
3800
3000
3000
3000
3000
3000
FF00
0000
1800
1000
3000
2000
ENDCHAR
STARTCHAR 0158
ENCODING 344
SWIDTH 565 0
DWIDTH 11 0
BBX 10 17 1 0
BITMAP
2200
3200
1C00
0800
0000
0000
FE00
6300
6180
6180
6100
7E00
6600
6300
6300
6180
F8C0
ENDCHAR
STARTCHAR 0159
ENCODING 345
SWIDTH 565 0
DWIDTH 11 0
BBX 9 14 1 0
BITMAP
2100
3300
1E00
0C00
0000
7380
3680
3800
3000
3000
3000
3000
3000
FF00
ENDCHAR
STARTCHAR 015A
ENCODING 346
SWIDTH 565 0
DWIDTH 11 0
BBX 9 17 1 0
BITMAP
0200
0600
1C00
1000
0000
0000
3D00
6700
4100
4000
7000
1F00
0180
C180
C180
F300
DE00
ENDCHAR
STARTCHAR 015B
ENCODING 347
SWIDTH 565 0
DWIDTH 11 0
BBX 8 14 2 0
BITMAP
04
0C
38
20
00
7A
CE
82
C0
7E
03
83
E6
BC
ENDCHAR
STARTCHAR 015C
ENCODING 348
SWIDTH 565 0
DWIDTH 11 0
BBX 9 17 1 0
BITMAP
0800
1C00
3600
2300
0000
0000
3D00
6700
4100
4000
7000
1F00
0180
C180
C180
F300
DE00
ENDCHAR
STARTCHAR 015D
ENCODING 349
SWIDTH 565 0
DWIDTH 11 0
BBX 8 14 2 0
BITMAP
10
38
6C
46
00
7A
CE
82
C0
7E
03
83
E6
BC
ENDCHAR
STARTCHAR 015E
ENCODING 350
SWIDTH 565 0
DWIDTH 11 0
BBX 9 15 1 -4
BITMAP
3D00
6700
4100
4000
7000
1F00
0180
C180
C180
F300
DE00
0800
0E00
0200
3E00
ENDCHAR
STARTCHAR 015F
ENCODING 351
SWIDTH 565 0
DWIDTH 11 0
BBX 8 13 2 -4
BITMAP
7A
CE
82
C0
7E
03
83
E6
BC
10
1C
04
3C
ENDCHAR
STARTCHAR 0160
ENCODING 352
SWIDTH 565 0
DWIDTH 11 0
BBX 9 17 1 0
BITMAP
2200
6600
1C00
0800
0000
0000
3D00
6700
4100
4000
7000
1F00
0180
C180
C180
F300
DE00
ENDCHAR
STARTCHAR 0161
ENCODING 353
SWIDTH 565 0
DWIDTH 11 0
BBX 8 14 2 0
BITMAP
44
66
38
10
00
7A
CE
82
C0
7E
03
83
E6
BC
ENDCHAR
STARTCHAR 0162
ENCODING 354
SWIDTH 565 0
DWIDTH 11 0
BBX 9 15 1 -4
BITMAP
FF80
C880
C880
C880
8880
0800
0800
0800
0800
0800
7F00
0800
0E00
0200
3E00
ENDCHAR
STARTCHAR 0163
ENCODING 355
SWIDTH 565 0
DWIDTH 11 0
BBX 9 15 1 -4
BITMAP
1000
1000
1000
FF00
1000
1000
1000
1000
1000
1B80
0F00
0C00
0E00
0200
1E00
ENDCHAR
STARTCHAR 0164
ENCODING 356
SWIDTH 565 0
DWIDTH 11 0
BBX 9 17 1 0
BITMAP
2100
3300
1E00
0C00
0000
0000
FF80
C880
C880
C880
8880
0800
0800
0800
0800
0800
7F00
ENDCHAR
STARTCHAR 0165
ENCODING 357
SWIDTH 565 0
DWIDTH 11 0
BBX 9 13 1 0
BITMAP
0100
0300
1300
1200
1000
FF00
1000
1000
1000
1000
1000
1B80
0F00
ENDCHAR
STARTCHAR 0166
ENCODING 358
SWIDTH 565 0
DWIDTH 11 0
BBX 9 11 1 0
BITMAP
FF80
C880
C880
C880
0800
7F00
0800
0800
0800
0800
7F00
ENDCHAR
STARTCHAR 0167
ENCODING 359
SWIDTH 565 0
DWIDTH 11 0
BBX 9 11 1 0
BITMAP
1000
1000
1000
FF00
1000
7E00
1000
1000
1080
1B80
0F00
ENDCHAR
STARTCHAR 0168
ENCODING 360
SWIDTH 565 0
DWIDTH 11 0
BBX 10 16 1 0
BITMAP
3900
6E00
0000
0000
0000
F3C0
4180
4180
4180
4180
4180
4180
4180
4100
7300
3E00
ENDCHAR
STARTCHAR 0169
ENCODING 361
SWIDTH 565 0
DWIDTH 11 0
BBX 10 13 1 0
BITMAP
3B00
6E00
0000
0000
C700
4100
4100
4100
4100
4100
4300
6700
3DC0
ENDCHAR
STARTCHAR 016A
ENCODING 362
SWIDTH 565 0
DWIDTH 11 0
BBX 10 15 1 0
BITMAP
3F00
0000
0000
0000
F3C0
4180
4180
4180
4180
4180
4180
4180
4100
7300
3E00
ENDCHAR
STARTCHAR 016B
ENCODING 363
SWIDTH 565 0
DWIDTH 11 0
BBX 10 12 1 0
BITMAP
3F00
0000
0000
C700
4100
4100
4100
4100
4100
4300
6700
3DC0
ENDCHAR
STARTCHAR 016C
ENCODING 364
SWIDTH 565 0
DWIDTH 11 0
BBX 10 16 1 0
BITMAP
2100
2300
3E00
0000
0000
F3C0
4180
4180
4180
4180
4180
4180
4180
4100
7300
3E00
ENDCHAR
STARTCHAR 016D
ENCODING 365
SWIDTH 565 0
DWIDTH 11 0
BBX 10 13 1 0
BITMAP
6300
2200
3E00
0000
C700
4100
4100
4100
4100
4100
4300
6700
3DC0
ENDCHAR
STARTCHAR 016E
ENCODING 366
SWIDTH 565 0
DWIDTH 11 0
BBX 10 17 1 0
BITMAP
1C00
3600
3200
1C00
0000
0000
F3C0
4180
4180
4180
4180
4180
4180
4180
4100
7300
3E00
ENDCHAR
STARTCHAR 016F
ENCODING 367
SWIDTH 565 0
DWIDTH 11 0
BBX 10 14 1 0
BITMAP
1C00
3600
2600
1C00
0000
C700
4100
4100
4100
4100
4100
4300
6700
3DC0
ENDCHAR
STARTCHAR 0170
ENCODING 368
SWIDTH 565 0
DWIDTH 11 0
BBX 10 17 1 0
BITMAP
0880
0D80
1B00
2600
0000
0000
F3C0
4180
4180
4180
4180
4180
4180
4180
4100
7300
3E00
ENDCHAR
STARTCHAR 0171
ENCODING 369
SWIDTH 565 0
DWIDTH 11 0
BBX 10 14 1 0
BITMAP
0900
1980
3300
2600
0000
C700
4100
4100
4100
4100
4100
4300
6700
3DC0
ENDCHAR
STARTCHAR 0172
ENCODING 370
SWIDTH 565 0
DWIDTH 11 0
BBX 10 15 1 -4
BITMAP
F3C0
4180
4180
4180
4180
4180
4180
4180
4100
7300
3E00
0C00
0800
0800
0E00
ENDCHAR
STARTCHAR 0173
ENCODING 371
SWIDTH 565 0
DWIDTH 11 0
BBX 10 13 1 -4
BITMAP
C700
4100
4100
4100
4100
4100
4300
6700
3DC0
0100
0300
0200
03C0
ENDCHAR
STARTCHAR 0174
ENCODING 372
SWIDTH 565 0
DWIDTH 11 0
BBX 11 17 0 0
BITMAP
0400
0E00
1B00
1180
0000
0000
F1E0
4040
4440
6640
6E40
2AC0
2BC0
39C0
3180
3180
3180
ENDCHAR
STARTCHAR 0175
ENCODING 373
SWIDTH 565 0
DWIDTH 11 0
BBX 11 14 0 0
BITMAP
0400
0E00
1B00
1180
0000
F0E0
4060
4440
6640
6E40
2AC0
2B80
3980
3180
ENDCHAR
STARTCHAR 0176
ENCODING 374
SWIDTH 565 0
DWIDTH 11 0
BBX 10 17 1 0
BITMAP
0800
1C00
3600
2300
0000
0000
F3C0
4180
6300
3200
1600
1C00
0800
0800
0800
0800
7F00
ENDCHAR
STARTCHAR 0177
ENCODING 375
SWIDTH 565 0
DWIDTH 11 0
BBX 11 18 0 -4
BITMAP
0400
0600
0B00
1180
0000
F9E0
20C0
3080
1180
1900
0B00
0E00
0600
0400
0400
0800
3800
7000
ENDCHAR
STARTCHAR 0178
ENCODING 376
SWIDTH 565 0
DWIDTH 11 0
BBX 10 15 1 0
BITMAP
3300
3300
0000
0000
F3C0
4180
6300
3200
1600
1C00
0800
0800
0800
0800
7F00
ENDCHAR
STARTCHAR 0179
ENCODING 377
SWIDTH 565 0
DWIDTH 11 0
BBX 8 17 2 0
BITMAP
04
0C
18
20
00
00
FF
82
86
8C
08
10
30
63
43
C3
FF
ENDCHAR
STARTCHAR 017A
ENCODING 378
SWIDTH 565 0
DWIDTH 11 0
BBX 8 14 2 0
BITMAP
04
0C
18
20
00
FF
86
8C
08
18
31
63
C3
FF
ENDCHAR
STARTCHAR 017B
ENCODING 379
SWIDTH 565 0
DWIDTH 11 0
BBX 8 15 2 0
BITMAP
18
18
00
00
FF
82
86
8C
08
10
30
63
43
C3
FF
ENDCHAR
STARTCHAR 017C
ENCODING 380
SWIDTH 565 0
DWIDTH 11 0
BBX 8 12 2 0
BITMAP
18
18
00
FF
86
8C
08
18
31
63
C3
FF
ENDCHAR
STARTCHAR 017D
ENCODING 381
SWIDTH 565 0
DWIDTH 11 0
BBX 8 17 2 0
BITMAP
42
66
3C
18
00
00
FF
82
86
8C
08
10
30
63
43
C3
FF
ENDCHAR
STARTCHAR 017E
ENCODING 382
SWIDTH 565 0
DWIDTH 11 0
BBX 8 14 2 0
BITMAP
42
66
3C
18
00
FF
86
8C
08
18
31
63
C3
FF
ENDCHAR
STARTCHAR 0192
ENCODING 402
SWIDTH 565 0
DWIDTH 11 0
BBX 11 15 0 -3
BITMAP
01E0
0340
0600
0600
0600
1F80
0400
0400
0400
0400
0400
0C00
0C00
0800
F800
ENDCHAR
STARTCHAR 0218
ENCODING 536
SWIDTH 565 0
DWIDTH 11 0
BBX 9 16 1 -5
BITMAP
3D00
6700
4100
4000
7000
1F00
0180
C180
C180
F300
DE00
0000
0C00
0800
0800
1800
ENDCHAR
STARTCHAR 0219
ENCODING 537
SWIDTH 565 0
DWIDTH 11 0
BBX 8 14 2 -5
BITMAP
7A
CE
82
C0
7E
03
83
E6
BC
00
18
10
10
30
ENDCHAR
STARTCHAR 021A
ENCODING 538
SWIDTH 565 0
DWIDTH 11 0
BBX 9 16 1 -5
BITMAP
FF80
C880
C880
C880
8880
0800
0800
0800
0800
0800
7F00
0000
0C00
0800
1800
1000
ENDCHAR
STARTCHAR 021B
ENCODING 539
SWIDTH 565 0
DWIDTH 11 0
BBX 9 16 1 -5
BITMAP
1000
1000
1000
FF00
1000
1000
1000
1000
1000
1B80
0F00
0000
0C00
0C00
0800
0800
ENDCHAR
STARTCHAR 0237
ENCODING 567
SWIDTH 565 0
DWIDTH 11 0
BBX 6 13 2 -4
BITMAP
FC
04
04
04
04
04
04
04
04
04
04
EC
78
ENDCHAR
STARTCHAR 02C6
ENCODING 710
SWIDTH 565 0
DWIDTH 11 0
BBX 6 4 3 10
BITMAP
20
70
D8
8C
ENDCHAR
STARTCHAR 02C7
ENCODING 711
SWIDTH 565 0
DWIDTH 11 0
BBX 6 4 3 10
BITMAP
84
CC
78
30
ENDCHAR
STARTCHAR 02D8
ENCODING 728
SWIDTH 565 0
DWIDTH 11 0
BBX 6 3 3 10
BITMAP
84
8C
F8
ENDCHAR
STARTCHAR 02D9
ENCODING 729
SWIDTH 565 0
DWIDTH 11 0
BBX 2 2 5 10
BITMAP
C0
C0
ENDCHAR
STARTCHAR 02DA
ENCODING 730
SWIDTH 565 0
DWIDTH 11 0
BBX 5 4 3 10
BITMAP
70
D8
C8
70
ENDCHAR
STARTCHAR 02DB
ENCODING 731
SWIDTH 565 0
DWIDTH 11 0
BBX 4 4 4 -4
BITMAP
60
80
80
F0
ENDCHAR
STARTCHAR 02DC
ENCODING 732
SWIDTH 565 0
DWIDTH 11 0
BBX 7 2 2 11
BITMAP
72
DC
ENDCHAR
STARTCHAR 02DD
ENCODING 733
SWIDTH 565 0
DWIDTH 11 0
BBX 7 4 3 10
BITMAP
22
36
6C
98
ENDCHAR
STARTCHAR 0326
ENCODING 806
SWIDTH 0 0
DWIDTH 0 0
BBX 2 4 -7 -5
BITMAP
40
C0
C0
80
ENDCHAR
STARTCHAR 0394
ENCODING 916
SWIDTH 565 0
DWIDTH 11 0
BBX 9 12 1 0
BITMAP
0C00
1C00
1C00
1600
1600
3200
2300
2300
6100
4180
4180
FF80
ENDCHAR
STARTCHAR 03A9
ENCODING 937
SWIDTH 565 0
DWIDTH 11 0
BBX 10 12 1 0
BITMAP
1E00
7300
4180
C080
8080
80C0
80C0
C080
C180
6100
3300
F7C0
ENDCHAR
STARTCHAR 03BC
ENCODING 956
SWIDTH 565 0
DWIDTH 11 0
BBX 7 13 2 -4
BITMAP
82
82
82
82
82
82
C6
CE
FA
80
80
80
80
ENDCHAR
STARTCHAR 03C0
ENCODING 960
SWIDTH 565 0
DWIDTH 11 0
BBX 9 9 1 0
BITMAP
FF80
6100
6100
6100
6100
6100
6100
6100
6100
ENDCHAR
STARTCHAR 1E80
ENCODING 7808
SWIDTH 565 0
DWIDTH 11 0
BBX 11 17 0 0
BITMAP
1000
1800
0E00
0200
0000
0000
F1E0
4040
4440
6640
6E40
2AC0
2BC0
39C0
3180
3180
3180
ENDCHAR
STARTCHAR 1E81
ENCODING 7809
SWIDTH 565 0
DWIDTH 11 0
BBX 11 14 0 0
BITMAP
1000
1800
0E00
0200
0000
F0E0
4060
4440
6640
6E40
2AC0
2B80
3980
3180
ENDCHAR
STARTCHAR 1E82
ENCODING 7810
SWIDTH 565 0
DWIDTH 11 0
BBX 11 17 0 0
BITMAP
0100
0380
0600
0C00
0000
0000
F1E0
4040
4440
6640
6E40
2AC0
2BC0
39C0
3180
3180
3180
ENDCHAR
STARTCHAR 1E83
ENCODING 7811
SWIDTH 565 0
DWIDTH 11 0
BBX 11 14 0 0
BITMAP
0100
0380
0600
0C00
0000
F0E0
4060
4440
6640
6E40
2AC0
2B80
3980
3180
ENDCHAR
STARTCHAR 1E84
ENCODING 7812
SWIDTH 565 0
DWIDTH 11 0
BBX 11 15 0 0
BITMAP
1980
1980
0000
0000
F1E0
4040
4440
6640
6E40
2AC0
2BC0
39C0
3180
3180
3180
ENDCHAR
STARTCHAR 1E85
ENCODING 7813
SWIDTH 565 0
DWIDTH 11 0
BBX 11 12 0 0
BITMAP
1980
1980
0000
F0E0
4060
4440
6640
6E40
2AC0
2B80
3980
3180
ENDCHAR
STARTCHAR 1EF2
ENCODING 7922
SWIDTH 565 0
DWIDTH 11 0
BBX 10 17 1 0
BITMAP
2000
3000
1C00
0600
0000
0000
F3C0
4180
6300
3200
1600
1C00
0800
0800
0800
0800
7F00
ENDCHAR
STARTCHAR 1EF3
ENCODING 7923
SWIDTH 565 0
DWIDTH 11 0
BBX 11 18 0 -4
BITMAP
1000
1800
0E00
0300
0000
F9E0
20C0
3080
1180
1900
0B00
0E00
0600
0400
0400
0800
3800
7000
ENDCHAR
STARTCHAR 2011
ENCODING 8209
SWIDTH 565 0
DWIDTH 11 0
BBX 8 1 2 5
BITMAP
FF
ENDCHAR
STARTCHAR 2013
ENCODING 8211
SWIDTH 565 0
DWIDTH 11 0
BBX 8 1 2 5
BITMAP
FF
ENDCHAR
STARTCHAR 2014
ENCODING 8212
SWIDTH 565 0
DWIDTH 11 0
BBX 12 1 0 5
BITMAP
FFF0
ENDCHAR
STARTCHAR 2018
ENCODING 8216
SWIDTH 565 0
DWIDTH 11 0
BBX 3 5 4 7
BITMAP
20
20
60
60
C0
ENDCHAR
STARTCHAR 2019
ENCODING 8217
SWIDTH 565 0
DWIDTH 11 0
BBX 3 5 4 7
BITMAP
60
60
60
C0
C0
ENDCHAR
STARTCHAR 201A
ENCODING 8218
SWIDTH 565 0
DWIDTH 11 0
BBX 3 5 4 -2
BITMAP
60
60
60
C0
C0
ENDCHAR
STARTCHAR 201C
ENCODING 8220
SWIDTH 565 0
DWIDTH 11 0
BBX 8 5 2 7
BITMAP
23
62
66
C6
CE
ENDCHAR
STARTCHAR 201D
ENCODING 8221
SWIDTH 565 0
DWIDTH 11 0
BBX 8 5 2 7
BITMAP
67
66
C6
C4
8C
ENDCHAR
STARTCHAR 201E
ENCODING 8222
SWIDTH 565 0
DWIDTH 11 0
BBX 8 5 2 -2
BITMAP
67
66
C6
C4
8C
ENDCHAR
STARTCHAR 2020
ENCODING 8224
SWIDTH 565 0
DWIDTH 11 0
BBX 6 9 3 2
BITMAP
20
20
FC
20
20
20
20
20
20
ENDCHAR
STARTCHAR 2021
ENCODING 8225
SWIDTH 565 0
DWIDTH 11 0
BBX 6 9 3 2
BITMAP
20
20
FC
20
20
20
FC
20
20
ENDCHAR
STARTCHAR 2022
ENCODING 8226
SWIDTH 565 0
DWIDTH 11 0
BBX 4 5 4 3
BITMAP
F0
F0
F0
F0
F0
ENDCHAR
STARTCHAR 2026
ENCODING 8230
SWIDTH 565 0
DWIDTH 11 0
BBX 9 2 1 0
BITMAP
CD80
CD80
ENDCHAR
STARTCHAR 2030
ENCODING 8240
SWIDTH 565 0
DWIDTH 11 0
BBX 15 11 0 0
BITMAP
7800
4840
CCC0
7980
0300
0600
09DC
3376
6222
4376
01DC
ENDCHAR
STARTCHAR 2032
ENCODING 8242
SWIDTH 565 0
DWIDTH 11 0
BBX 4 5 4 6
BITMAP
30
60
60
C0
80
ENDCHAR
STARTCHAR 2033
ENCODING 8243
SWIDTH 565 0
DWIDTH 11 0
BBX 8 5 2 6
BITMAP
33
36
64
CC
88
ENDCHAR
STARTCHAR 2039
ENCODING 8249
SWIDTH 565 0
DWIDTH 11 0
BBX 4 7 4 2
BITMAP
30
60
C0
80
C0
60
30
ENDCHAR
STARTCHAR 203A
ENCODING 8250
SWIDTH 565 0
DWIDTH 11 0
BBX 4 7 4 2
BITMAP
80
C0
60
30
60
C0
80
ENDCHAR
STARTCHAR 2044
ENCODING 8260
SWIDTH 565 0
DWIDTH 11 0
BBX 9 7 1 2
BITMAP
0080
0180
0300
0C00
1800
6000
8000
ENDCHAR
STARTCHAR 2074
ENCODING 8308
SWIDTH 565 0
DWIDTH 11 0
BBX 7 8 2 4
BITMAP
08
18
38
28
48
FE
08
08
ENDCHAR
STARTCHAR 20A3
ENCODING 8355
SWIDTH 565 0
DWIDTH 11 0
BBX 10 11 0 0
BITMAP
7FC0
1040
1040
1000
1F00
1000
1000
FF80
1000
1000
7E00
ENDCHAR
STARTCHAR 20A9
ENCODING 8361
SWIDTH 565 0
DWIDTH 11 0
BBX 12 11 0 0
BITMAP
F1E0
4040
4440
6640
FFF0
2EC0
2AC0
2BC0
3980
3180
3180
ENDCHAR
STARTCHAR 20AC
ENCODING 8364
SWIDTH 565 0
DWIDTH 11 0
BBX 9 11 1 0
BITMAP
1E80
3380
6080
FC80
6000
6000
FC00
6000
2080
3B80
1F00
ENDCHAR
STARTCHAR 2122
ENCODING 8482
SWIDTH 565 0
DWIDTH 11 0
BBX 11 5 1 7
BITMAP
F660
4660
45A0
45A0
4420
ENDCHAR
STARTCHAR 2202
ENCODING 8706
SWIDTH 565 0
DWIDTH 11 0
BBX 8 11 2 0
BITMAP
3C
06
02
03
7B
C7
86
82
86
CC
78
ENDCHAR
STARTCHAR 220F
ENCODING 8719
SWIDTH 565 0
DWIDTH 11 0
BBX 8 11 2 0
BITMAP
FF
83
83
83
83
83
83
83
83
83
82
ENDCHAR
STARTCHAR 2211
ENCODING 8721
SWIDTH 565 0
DWIDTH 11 0
BBX 8 11 2 0
BITMAP
FE
C0
60
30
30
18
10
20
60
C0
FF
ENDCHAR
STARTCHAR 2212
ENCODING 8722
SWIDTH 565 0
DWIDTH 11 0
BBX 8 1 2 5
BITMAP
FF
ENDCHAR
STARTCHAR 2215
ENCODING 8725
SWIDTH 565 0
DWIDTH 11 0
BBX 8 18 2 -3
BITMAP
03
02
06
06
04
0C
08
18
18
10
30
30
20
60
40
40
C0
80
ENDCHAR
STARTCHAR 221A
ENCODING 8730
SWIDTH 565 0
DWIDTH 11 0
BBX 9 11 1 0
BITMAP
0080
0180
0180
0100
0300
E200
2200
3600
1400
1C00
0C00
ENDCHAR
STARTCHAR 221E
ENCODING 8734
SWIDTH 565 0
DWIDTH 11 0
BBX 11 5 0 3
BITMAP
79C0
CE60
C420
CE20
79C0
ENDCHAR
STARTCHAR 222B
ENCODING 8747
SWIDTH 565 0
DWIDTH 11 0
BBX 11 18 0 -4
BITMAP
01E0
0220
0600
0400
0400
0400
0400
0400
0400
0400
0400
0400
0400
0400
0400
0400
8C00
F800
ENDCHAR
STARTCHAR 2248
ENCODING 8776
SWIDTH 565 0
DWIDTH 11 0
BBX 9 6 1 2
BITMAP
7880
CF00
0000
0000
7880
CF00
ENDCHAR
STARTCHAR 2260
ENCODING 8800
SWIDTH 565 0
DWIDTH 11 0
BBX 8 10 2 0
BITMAP
06
04
FF
08
10
30
FF
60
40
40
ENDCHAR
STARTCHAR 2264
ENCODING 8804
SWIDTH 565 0
DWIDTH 11 0
BBX 8 9 2 1
BITMAP
07
3C
F0
C0
38
0F
01
00
FF
ENDCHAR
STARTCHAR 2265
ENCODING 8805
SWIDTH 565 0
DWIDTH 11 0
BBX 8 9 2 1
BITMAP
C0
78
0E
07
3C
E0
80
00
FF
ENDCHAR
STARTCHAR 25CA
ENCODING 9674
SWIDTH 565 0
DWIDTH 11 0
BBX 7 12 2 0
BITMAP
10
38
38
6C
46
C2
C2
46
64
2C
38
18
ENDCHAR
STARTCHAR FB01
ENCODING 64257
SWIDTH 565 0
DWIDTH 11 0
BBX 11 12 0 0
BITMAP
1F00
3980
3000
FF80
3080
3080
3080
3080
3080
3080
3080
33E0
ENDCHAR
STARTCHAR FB02
ENCODING 64258
SWIDTH 565 0
DWIDTH 11 0
BBX 10 12 1 0
BITMAP
1E00
3300
6100
FD00
6100
6100
6100
6100
6100
6100
6100
67C0
ENDCHAR
ENDFONT
